<svg width="933" height="726" viewBox="0 0 933 726" fill="none" xmlns="http://www.w3.org/2000/svg">
<g id="new bg">
<g id="Svg Background">
<g clip-path="url(#clip0)">
<g id="Group 21">
<path id="Vector" d="M863.382 525.117C830.61 556.298 838.904 599.637 855.405 633.966C860.961 645.457 867.239 657.601 863.509 670.302C858.945 685.834 840.341 697.798 821.268 704.495C786.513 716.709 746.169 715.705 716.239 701.889C690.373 689.946 672.792 669.569 646.394 658.213C602.273 639.277 543.357 649.408 492.482 665.683C456.488 677.185 416.97 691.854 382.857 682.652C358.856 676.176 343.299 658.735 335.569 639.905C331.838 630.813 329.394 620.908 321.441 613.895C316.679 609.728 310.329 606.867 303.75 604.542C243.659 583.086 164.377 598.945 106.239 574.817C67.0071 558.552 43.6647 525.85 34.9499 491.135C26.2352 456.421 30.5291 419.497 36.3548 383.161C40.4899 357.342 46.4188 329.72 69.1898 309.022C93.2783 287.129 132.352 277.806 166.814 280.432C201.276 283.057 231.579 296.06 257.954 311.758C290.916 331.337 320.949 356.167 362.8 362.964C391.302 367.608 422.018 363.25 451.971 360.956C502.053 357.166 551.683 359.274 600.979 361.78C648.18 364.179 695.683 366.996 740.01 377.227C771.377 384.466 795.839 398.884 825.245 408.473C844.412 414.723 865.763 415.817 883.724 424.035C905.852 434.151 925.409 452.495 917.718 475.161C910.408 496.743 880.772 508.551 863.382 525.117Z" fill="url(#paint0_linear)"/>
<g id="Group 20">
<path id="Vector_2" d="M791.367 39.4272C791.367 39.4272 802.571 64.0263 810.04 66.6157L788.877 100.278L771.449 78.268C771.449 78.268 772.694 62.7317 768.959 56.2582C765.224 49.7848 791.367 39.4272 791.367 39.4272Z" fill="#FBBEBE"/>
<path id="Vector_3" d="M773.939 61.437C787.002 61.437 797.592 50.4236 797.592 36.8379C797.592 23.2522 787.002 12.2388 773.939 12.2388C760.875 12.2388 750.286 23.2522 750.286 36.8379C750.286 50.4236 760.875 61.437 773.939 61.437Z" fill="#FBBEBE"/>
<path id="Vector_4" d="M741.571 212.916L747.796 231.042L755.265 221.978L748.997 201.333L741.571 212.916Z" fill="#FBBEBE"/>
<path id="Vector_5" d="M759 203.853C759 203.853 751.531 236.22 755.265 251.757C759 267.293 770.204 373.457 770.204 373.457L777.673 457.612L807.551 460.202L803.816 361.805L807.551 276.356L828.714 359.216V460.202L864.816 461.496L861.081 330.733C861.081 330.733 863.571 229.747 847.388 216.8C831.204 203.853 828.714 201.264 828.714 201.264L759 203.853Z" fill="#2F2E41"/>
<path id="Vector_6" d="M783.898 456.317L781.408 465.38L777.673 477.032C777.673 477.032 766.469 500.337 785.143 496.453C803.816 492.569 801.326 483.506 801.326 483.506C801.326 483.506 807.551 479.622 806.306 478.327C805.061 477.032 805.061 457.612 805.061 457.612L783.898 456.317Z" fill="#2F2E41"/>
<path id="Vector_7" d="M856.101 456.317L858.591 465.38L862.326 477.032C862.326 477.032 873.53 500.337 854.857 496.453C836.183 492.569 838.673 483.506 838.673 483.506C838.673 483.506 832.449 479.622 833.693 478.327C834.938 477.032 834.938 457.612 834.938 457.612L856.101 456.317Z" fill="#2F2E41"/>
<path id="Vector_8" d="M788.878 84.7414L804.103 61.437L832.449 76.9733L836.184 211.621C836.184 211.621 820 201.263 795.102 214.21C770.204 227.157 754.021 218.094 754.021 218.094L768.959 159.833L762.735 82.152L771.638 73.7483L788.878 84.7414Z" fill="#E6E6E6"/>
<path id="Vector_9" d="M771.641 71.2978L766.47 75.6788C766.47 75.6788 734.102 92.5098 732.857 104.162L755.266 167.602C755.266 167.602 761.49 181.843 756.51 187.022C751.531 192.201 746.551 205.148 747.796 211.621C749.041 218.095 740.327 245.283 750.286 245.283C760.245 245.283 783.898 183.138 782.653 158.539C781.408 133.94 780.547 69.5062 771.641 71.2978Z" fill="#2F2E41"/>
<path id="Vector_10" d="M744.061 96.3936L736.388 97.2472C736.388 97.2472 729.123 102.867 729.123 115.814C729.123 128.761 727.878 167.602 727.878 167.602C727.878 167.602 725.388 187.022 732.857 201.263C740.327 215.505 741.572 219.389 741.572 219.389L754.021 203.853V171.486L759 150.771L744.061 96.3936Z" fill="#2F2E41"/>
<path id="Vector_11" d="M800.361 56.1104L812.531 61.437C812.531 61.437 854.857 73.0892 861.081 92.5095L843.653 137.824C843.653 137.824 856.102 220.684 852.367 220.684H848.633C848.633 220.684 858.592 228.452 852.367 231.041C846.143 233.631 831.204 254.346 827.469 245.283C823.735 236.22 801.327 128.761 803.816 105.456C806.306 82.152 798.15 58.5518 800.361 56.1104Z" fill="#2F2E41"/>
<path id="Vector_12" d="M783.275 5.11808V2.52871H777.05C777.05 2.52871 767.091 -3.94477 758.377 3.82338C749.663 11.5915 745.928 15.4756 745.928 15.4756L742.193 20.6544L745.928 21.949L742.193 25.8331H745.928L743.438 29.7172L750.416 39.4274C750.416 39.4274 749.663 29.7172 757.132 29.7172C764.601 29.7172 773.316 19.3597 773.316 19.3597L791.989 33.6013C791.989 33.6013 790.744 25.8697 795.101 25.8514C795.101 25.8514 796.969 6.41278 783.275 5.11808Z" fill="#2F2E41"/>
<path id="Vector_13" d="M869.795 212.916L867.306 240.104C867.306 240.104 867.306 280.24 853.612 276.356C839.918 272.472 851.122 238.81 851.122 238.81L853.014 214.462L869.795 212.916Z" fill="#FBBEBE"/>
<path id="Vector_14" d="M842.408 86.0362C842.408 86.0362 858.591 79.5628 863.571 98.9832C868.551 118.404 874.775 157.244 874.775 157.244C879.977 170.972 879.977 186.241 874.775 199.969L871.04 219.389L849.877 216.8L844.898 172.78L839.918 117.109L842.408 86.0362Z" fill="#2F2E41"/>
<g id="Group 18">
<path id="Vector_15" d="M523.946 300.141V440.01L546.442 478.139L548.154 481.039H636.918L638.711 300.141H523.946Z" fill="#E6E6E6"/>
<path id="Vector_16" opacity="0.1" d="M523.946 300.141V440.01L546.442 478.139L547.823 300.141H523.946Z" fill="black"/>
<path id="Vector_17" d="M309.657 296.41V436.28L287.161 474.409L285.449 477.308H196.686L194.892 296.41H309.657Z" fill="#E6E6E6"/>
<path id="Vector_18" opacity="0.1" d="M309.657 296.41V436.28L287.161 474.409L285.781 296.41H309.657Z" fill="black"/>
<path id="Vector_19" d="M665.609 293.613V302.005H183.236V289.882L228.066 265.638H626.159L665.609 293.613Z" fill="#E6E6E6"/>
<path id="Vector_20" opacity="0.1" d="M665.609 293.613V302.005H183.236V289.883L665.609 293.613Z" fill="black"/>
<path id="Vector_21" d="M252.275 335.574H230.756L221.79 329.046H262.137L252.275 335.574Z" fill="#3F3D56"/>
<path id="Vector_22" d="M252.275 362.616H230.756L221.79 356.088H262.137L252.275 362.616Z" fill="#3F3D56"/>
<path id="Vector_23" d="M252.275 400.847H230.756L221.79 394.319H262.137L252.275 400.847Z" fill="#3F3D56"/>
<path id="Vector_24" d="M252.275 439.078H230.756L221.79 432.551H262.137L252.275 439.078Z" fill="#3F3D56"/>
<path id="Vector_25" d="M581.328 339.304H602.847L611.813 332.776H571.466L581.328 339.304Z" fill="#3F3D56"/>
<path id="Vector_26" d="M581.328 366.345H602.847L611.813 359.818H571.466L581.328 366.345Z" fill="#3F3D56"/>
<path id="Vector_27" d="M581.328 404.577H602.847L611.813 398.05H571.466L581.328 404.577Z" fill="#3F3D56"/>
<path id="Vector_28" d="M581.328 442.807H602.847L611.813 436.28H571.466L581.328 442.807Z" fill="#3F3D56"/>
<path id="Vector_29" d="M595.982 103.893H414.826C413.926 103.892 413.035 104.077 412.204 104.435C411.372 104.793 410.617 105.318 409.981 105.979C409.345 106.641 408.84 107.426 408.496 108.291C408.152 109.155 407.974 110.082 407.975 111.018V237.93C407.974 238.866 408.152 239.793 408.496 240.657C408.84 241.522 409.345 242.307 409.981 242.969C410.617 243.631 411.372 244.155 412.204 244.513C413.035 244.872 413.926 245.056 414.826 245.056H483.594L481.018 262.163C481.018 262.163 466.294 270.298 476.647 270.537C486.999 270.776 535.771 270.537 535.771 270.537C535.771 270.537 545.204 270.537 530.25 261.923L527.826 245.056H595.982C596.882 245.056 597.773 244.872 598.604 244.513C599.435 244.155 600.19 243.631 600.827 242.969C601.463 242.307 601.967 241.522 602.312 240.657C602.656 239.793 602.833 238.866 602.833 237.93V111.018C602.833 110.082 602.656 109.155 602.312 108.291C601.967 107.426 601.463 106.641 600.827 105.979C600.19 105.318 599.435 104.793 598.604 104.435C597.773 104.077 596.882 103.892 595.982 103.893V103.893Z" fill="#3F3D56"/>
<path id="Vector_30" d="M596.276 111.429H414.531V217.182H596.276V111.429Z" fill="#F2F2F2"/>
<path id="Vector_31" d="M505.404 109.276C506.039 109.276 506.554 108.741 506.554 108.08C506.554 107.419 506.039 106.884 505.404 106.884C504.768 106.884 504.253 107.419 504.253 108.08C504.253 108.741 504.768 109.276 505.404 109.276Z" fill="#F2F2F2"/>
<path id="Vector_32" d="M505.404 239.912C507.818 239.912 509.775 237.876 509.775 235.366C509.775 232.855 507.818 230.82 505.404 230.82C502.99 230.82 501.033 232.855 501.033 235.366C501.033 237.876 502.99 239.912 505.404 239.912Z" fill="#F2F2F2"/>
<path id="Vector_33" d="M498.593 283.457V285.85H374.822V283.936L374.992 283.457L378.043 274.844H496.062L498.593 283.457Z" fill="#3F3D56"/>
<path id="Vector_34" d="M546.224 281.115C545.998 282.117 545.147 283.175 543.224 284.175C536.322 287.764 522.288 283.218 522.288 283.218C522.288 283.218 511.476 281.304 511.476 276.279C511.779 276.063 512.096 275.867 512.423 275.693C515.325 274.097 524.946 270.157 542.005 275.86C543.262 276.27 544.385 277.035 545.248 278.07C545.63 278.461 545.918 278.941 546.088 279.47C546.257 280 546.304 280.563 546.224 281.115Z" fill="#3F3D56"/>
<path id="Vector_35" opacity="0.1" d="M546.223 281.115C537.776 284.481 530.246 284.732 522.518 279.15C519.596 276.904 516.057 275.692 512.423 275.693C515.325 274.097 524.946 270.157 542.005 275.86C543.262 276.27 544.384 277.035 545.248 278.07C545.63 278.461 545.918 278.941 546.088 279.47C546.257 280 546.304 280.563 546.223 281.115Z" fill="black"/>
<path id="Vector_36" d="M535.631 279.15C537.283 279.15 538.622 278.722 538.622 278.193C538.622 277.665 537.283 277.236 535.631 277.236C533.98 277.236 532.641 277.665 532.641 278.193C532.641 278.722 533.98 279.15 535.631 279.15Z" fill="#F2F2F2"/>
<path id="Vector_37" opacity="0.1" d="M498.593 283.457V285.85H374.822V283.936L374.992 283.457H498.593Z" fill="black"/>
<g id="Group 13">
<path id="Rectangle 55" d="M488.202 146.162H466.572V151.578H488.202V146.162Z" fill="#6C63FF"/>
<path id="Rectangle 56" d="M563.105 146.162H555.494V151.578H563.105V146.162Z" fill="#6C63FF"/>
<path id="Rectangle 57" d="M578.326 146.162H570.715V151.578H578.326V146.162Z" fill="#6C63FF"/>
<path id="Rectangle 58" d="M547.484 146.162H495.812V151.578H547.484V146.162Z" fill="#6C63FF"/>
<path id="Rectangle 59" d="M460.964 181.154H439.334V186.57H460.964V181.154Z" fill="#6C63FF"/>
<path id="Rectangle 60" d="M535.867 181.154H528.257V186.57H535.867V181.154Z" fill="#6C63FF"/>
<path id="Rectangle 61" d="M551.088 181.154H543.478V186.57H551.088V181.154Z" fill="#6C63FF"/>
<path id="Rectangle 62" d="M520.246 181.154H468.575V186.57H520.246V181.154Z" fill="#6C63FF"/>
<path id="Rectangle 63" d="M550.287 158.243H528.657V163.658H550.287V158.243Z" fill="#6C63FF"/>
<path id="Rectangle 64" d="M579.527 158.243H557.897V163.658H579.527V158.243Z" fill="#6C63FF"/>
<path id="Rectangle 66" d="M446.945 158.243H439.334V163.658H446.945V158.243Z" fill="#6C63FF"/>
<path id="Rectangle 67" d="M462.166 158.243H454.555V163.658H462.166V158.243Z" fill="#6C63FF"/>
<path id="Rectangle 68" d="M521.447 158.243H469.776V163.658H521.447V158.243Z" fill="#6C63FF"/>
<path id="Rectangle 69" d="M505.426 169.907H483.796V175.322H505.426V169.907Z" fill="#6C63FF"/>
<path id="Rectangle 70" d="M476.185 169.907H454.555V175.322H476.185V169.907Z" fill="#6C63FF"/>
<path id="Rectangle 71" d="M446.945 169.907H439.334V175.322H446.945V169.907Z" fill="#6C63FF"/>
<path id="Rectangle 73" d="M579.527 169.907H571.917V175.322H579.527V169.907Z" fill="#6C63FF"/>
<path id="Rectangle 74" d="M564.306 169.907H512.635V175.322H564.306V169.907Z" fill="#6C63FF"/>
</g>
</g>
<g id="Group 16">
<g id="Group 19">
<g id="undraw_file_searching_duff 1">
<g clip-path="url(#clip1)">
<g id="Group" opacity="0.5">
<path id="Vector_38" opacity="0.5" d="M522.646 125.135H458.566V209.063H522.646V125.135Z" fill="url(#paint1_linear)"/>
</g>
<path id="Vector_39" d="M521.478 126.274H459.4V207.274H521.478V126.274Z" fill="#F2F2F2"/>
<path id="Vector_40" d="M485.6 129.689H464.24V130.34H485.6V129.689Z" fill="#E0E0E0"/>
<path id="Vector_41" opacity="0.7" d="M485.6 132.617H464.24V133.267H485.6V132.617Z" fill="#6C63FF"/>
<path id="Vector_42" d="M510.131 129.689H488.771V130.34H510.131V129.689Z" fill="#E0E0E0"/>
<path id="Vector_43" d="M513.467 148.232H492.107V148.883H513.467V148.232Z" fill="#E0E0E0"/>
<path id="Vector_44" d="M513.969 150.021H492.609V150.671H513.969V150.021Z" fill="#E0E0E0"/>
<path id="Vector_45" d="M514.971 151.811H493.611V152.461H514.971V151.811Z" fill="#E0E0E0"/>
<path id="Vector_46" d="M513.467 177.021H492.107V177.671H513.467V177.021Z" fill="#E0E0E0"/>
<path id="Vector_47" d="M513.969 178.811H492.609V179.461H513.969V178.811Z" fill="#E0E0E0"/>
<path id="Vector_48" d="M514.971 180.599H493.611V181.249H514.971V180.599Z" fill="#E0E0E0"/>
<g id="Group_2" opacity="0.5">
<path id="Vector_49" opacity="0.5" d="M487.102 141.562H464.407V164.008H487.102V141.562Z" fill="url(#paint2_linear)"/>
</g>
<path id="Vector_50" d="M486.888 142.051H464.55V163.521H486.888V142.051Z" fill="#F5F5F5"/>
<g id="Group_3" opacity="0.5">
<path id="Vector_51" opacity="0.5" d="M486.171 143.352H465.337V157.339H486.171V143.352Z" fill="url(#paint3_linear)"/>
</g>
<path id="&#60;Rectangle&#62;" d="M486.027 143.515H465.48V157.015H486.027V143.515Z" fill="white"/>
<g id="Group_4">
<path id="Vector_52" opacity="0.4" d="M463.739 156.527L468.913 148.72L471.082 152.135L475.755 147.419L479.76 152.135L483.264 145.142L492.275 159.129L463.071 158.153L463.739 156.527Z" fill="#6C63FF"/>
<path id="Vector_53" opacity="0.4" d="M467.744 146.93C468.573 146.93 469.246 146.275 469.246 145.466C469.246 144.658 468.573 144.002 467.744 144.002C466.915 144.002 466.242 144.658 466.242 145.466C466.242 146.275 466.915 146.93 467.744 146.93Z" fill="#6C63FF"/>
</g>
<g id="Group_5" opacity="0.5">
<path id="Vector_54" opacity="0.5" d="M487.102 170.352H464.407V192.798H487.102V170.352Z" fill="url(#paint4_linear)"/>
</g>
<path id="Vector_55" d="M486.888 170.84H464.55V192.309H486.888V170.84Z" fill="#F5F5F5"/>
<g id="Group_6" opacity="0.5">
<path id="Vector_56" opacity="0.5" d="M486.171 172.142H465.337V186.13H486.171V172.142Z" fill="url(#paint5_linear)"/>
</g>
<path id="&#60;Rectangle&#62;_2" d="M486.027 172.303H465.48V185.803H486.027V172.303Z" fill="white"/>
<g id="Group_7">
<path id="Vector_57" opacity="0.4" d="M463.739 185.316L468.913 177.508L471.082 180.925L475.755 176.207L479.76 180.925L483.264 173.93L492.275 187.918L463.071 186.943L463.739 185.316Z" fill="#BDBDBD"/>
<path id="Vector_58" opacity="0.4" d="M467.744 175.72C468.573 175.72 469.246 175.065 469.246 174.256C469.246 173.448 468.573 172.792 467.744 172.792C466.915 172.792 466.242 173.448 466.242 174.256C466.242 175.065 466.915 175.72 467.744 175.72Z" fill="#BDBDBD"/>
</g>
<g id="Group_8" opacity="0.5">
<path id="Vector_59" opacity="0.5" d="M484.757 120.988L467.973 203.306L530.824 215.48L547.608 133.162L484.757 120.988Z" fill="url(#paint6_linear)"/>
</g>
<path id="Vector_60" d="M485.348 122.264L469.149 201.71L530.036 213.504L546.235 134.058L485.348 122.264Z" fill="white"/>
<path id="Vector_61" d="M532.237 135.157L489.026 126.788L488.896 127.426L532.107 135.795L532.237 135.157Z" fill="#E0E0E0"/>
<path id="Vector_62" d="M519.942 195.461L476.731 187.091L476.601 187.729L519.812 196.099L519.942 195.461Z" fill="#E0E0E0"/>
<path id="Vector_63" d="M509.372 197.227L475.982 190.759L475.852 191.397L509.242 197.865L509.372 197.227Z" fill="#E0E0E0"/>
<path id="Vector_64" opacity="0.7" d="M487.673 196.839L475.234 194.43L475.104 195.068L487.542 197.477L487.673 196.839Z" fill="#6C63FF"/>
<path id="Vector_65" opacity="0.7" d="M509.882 134.642L488.277 130.458L488.147 131.095L509.752 135.28L509.882 134.642Z" fill="#6C63FF"/>
<path id="Vector_66" d="M526.485 141.672L487.531 134.126L487.401 134.764L526.355 142.31L526.485 141.672Z" fill="#E0E0E0"/>
<path id="Vector_67" opacity="0.7" d="M496.274 139.635L486.782 137.796L486.652 138.434L496.144 140.273L496.274 139.635Z" fill="#3AD29F"/>
<path id="Vector_68" d="M529.245 149.836L486.034 141.466L485.904 142.104L529.115 150.474L529.245 149.836Z" fill="#E0E0E0"/>
<g id="Group_9" opacity="0.5">
<path id="Vector_69" opacity="0.5" d="M489.842 156.964L485.418 178.659L524.208 186.173L528.632 164.477L489.842 156.964Z" fill="url(#paint7_linear)"/>
</g>
<path id="Vector_70" d="M528.361 164.589L490.062 157.171L485.735 178.388L524.035 185.807L528.361 164.589Z" fill="white"/>
<path id="Vector_71" d="M528.497 153.506L485.286 145.136L485.156 145.774L528.367 154.144L528.497 153.506Z" fill="#E0E0E0"/>
<path id="Vector_72" d="M498.234 161.739L493.487 160.82L490.332 176.294L495.079 177.214L498.234 161.739Z" fill="#6C63FF"/>
<path id="Vector_73" d="M505.704 168.493L500.957 167.573L498.843 177.943L503.59 178.862L505.704 168.493Z" fill="#3AD29F"/>
<path id="Vector_74" d="M513.24 174.928L508.493 174.008L507.355 179.591L512.102 180.511L513.24 174.928Z" fill="#F55F44"/>
<path id="Vector_75" d="M522.922 170.833L518.175 169.914L515.866 181.241L520.613 182.16L522.922 170.833Z" fill="#FDD835"/>
<path id="Vector_76" d="M536.772 155.748C534.713 153.66 532.247 151.996 529.518 150.851C526.789 149.707 523.853 149.106 520.882 149.085C517.912 149.063 514.966 149.62 512.22 150.724C509.474 151.829 506.982 153.457 504.891 155.514C496.46 163.798 496.317 177.287 504.564 185.746C508.187 189.463 513.042 191.81 518.27 192.372C523.498 192.935 528.761 191.676 533.128 188.819L549.231 205.143C549.431 205.345 549.704 205.462 549.992 205.467C550.279 205.473 550.557 205.367 550.764 205.172L554.777 201.412C554.984 201.218 555.104 200.951 555.109 200.671C555.115 200.391 555.006 200.12 554.807 199.917L538.708 183.594C541.795 179.471 543.293 174.42 542.939 169.328C542.585 164.235 540.401 159.427 536.772 155.748ZM531.757 181.994C529.485 184.123 526.617 185.547 523.515 186.087C520.413 186.626 517.216 186.258 514.329 185.027C511.442 183.796 508.994 181.758 507.295 179.171C505.597 176.584 504.723 173.565 504.785 170.494C504.847 167.423 505.842 164.439 507.643 161.92C509.445 159.4 511.973 157.458 514.908 156.338C517.842 155.219 521.051 154.973 524.129 155.631C527.207 156.289 530.016 157.822 532.2 160.036C533.65 161.506 534.789 163.24 535.551 165.139C536.314 167.039 536.685 169.065 536.644 171.104C536.603 173.144 536.15 175.155 535.312 177.023C534.473 178.892 533.265 180.581 531.757 181.994V181.994Z" fill="url(#paint8_linear)"/>
<path id="Vector_77" d="M508.913 166.479C507.121 166.479 507.119 169.193 508.913 169.193C510.708 169.193 510.708 166.479 508.913 166.479Z" fill="url(#paint9_linear)"/>
<path id="Vector_78" d="M521.404 157.784C516.581 157.678 512.193 160.036 509.859 163.596C509.098 164.757 511.26 165.784 512.017 164.628C513.949 161.681 517.62 159.809 521.591 159.906C525.752 160.008 529.539 162.328 531.544 165.548C532.304 166.77 534.297 165.66 533.544 164.445C531.106 160.546 526.385 157.899 521.404 157.784Z" fill="url(#paint10_linear)"/>
<path id="Vector_79" d="M523.944 127.571C520.675 124.25 516.759 121.601 512.427 119.781C508.094 117.96 503.432 117.004 498.716 116.969C493.999 116.935 489.323 117.822 484.963 119.579C480.603 121.335 476.646 123.926 473.326 127.199C459.941 140.38 459.714 161.843 472.807 175.304C478.559 181.218 486.268 184.952 494.568 185.846C502.869 186.741 511.226 184.737 518.159 180.191L543.723 206.168C544.04 206.489 544.474 206.675 544.931 206.683C545.387 206.692 545.829 206.523 546.158 206.214L552.528 200.231C552.857 199.922 553.047 199.497 553.056 199.052C553.065 198.606 552.892 198.175 552.576 197.853L527.01 171.878C531.911 165.319 534.29 157.282 533.73 149.18C533.169 141.078 529.705 133.427 523.944 127.571ZM515.981 169.316C512.374 172.703 507.821 174.969 502.895 175.828C497.97 176.687 492.895 176.1 488.311 174.141C483.727 172.183 479.841 168.94 477.144 164.824C474.447 160.708 473.06 155.903 473.158 151.017C473.256 146.131 474.836 141.383 477.696 137.374C480.557 133.365 484.571 130.274 489.23 128.493C493.889 126.712 498.984 126.32 503.871 127.368C508.758 128.415 513.217 130.854 516.684 134.377C518.987 136.716 520.795 139.476 522.006 142.497C523.217 145.519 523.807 148.744 523.741 151.989C523.676 155.233 522.957 158.433 521.626 161.406C520.294 164.379 518.376 167.067 515.981 169.316Z" fill="#6C63FF"/>
<path id="Vector_80" d="M510.661 165.653C508.869 165.653 508.866 168.368 510.661 168.368C512.456 168.368 512.456 165.653 510.661 165.653Z" fill="#6C63FF"/>
<path id="Vector_81" d="M523.151 156.959C518.329 156.854 513.94 159.212 511.607 162.771C510.845 163.933 513.007 164.959 513.765 163.803C515.697 160.856 519.367 158.985 523.339 159.082C527.5 159.184 531.286 161.504 533.291 164.724C534.051 165.946 536.045 164.835 535.292 163.621C532.85 159.71 528.134 157.064 523.151 156.959Z" fill="#6C63FF"/>
<path id="Vector_82" d="M454.393 199.466H453.893V202.231H454.393V199.466Z" fill="#47E6B1"/>
<path id="Vector_83" d="M455.562 201.091V200.604H452.726V201.091H455.562Z" fill="#47E6B1"/>
<path id="Vector_84" d="M518.256 108.107C518.118 108.049 518.007 107.943 517.944 107.809C517.881 107.676 517.87 107.525 517.914 107.384C517.921 107.363 517.926 107.34 517.927 107.317V107.317C517.932 107.253 517.915 107.189 517.878 107.134C517.842 107.08 517.789 107.039 517.727 107.016C517.665 106.994 517.597 106.992 517.533 107.01C517.469 107.028 517.414 107.066 517.374 107.118V107.118C517.36 107.136 517.349 107.156 517.34 107.177C517.28 107.311 517.171 107.42 517.034 107.481C516.897 107.542 516.742 107.553 516.598 107.51C516.576 107.503 516.553 107.499 516.53 107.497C516.463 107.492 516.396 107.509 516.34 107.545C516.284 107.58 516.241 107.632 516.219 107.694C516.196 107.755 516.194 107.822 516.214 107.884C516.234 107.947 516.274 108.001 516.328 108.039V108.039C516.347 108.052 516.367 108.063 516.388 108.072C516.526 108.131 516.637 108.237 516.7 108.37C516.763 108.504 516.774 108.655 516.73 108.795C516.723 108.817 516.718 108.839 516.717 108.862C516.711 108.927 516.728 108.993 516.765 109.048C516.801 109.103 516.855 109.145 516.919 109.167C516.982 109.19 517.051 109.191 517.115 109.171C517.179 109.152 517.235 109.112 517.274 109.058V109.058C517.288 109.04 517.299 109.021 517.308 109C517.368 108.865 517.477 108.757 517.614 108.696C517.751 108.634 517.906 108.624 518.05 108.667C518.072 108.674 518.095 108.678 518.119 108.68V108.68C518.185 108.684 518.251 108.667 518.306 108.632C518.362 108.597 518.405 108.545 518.428 108.485C518.451 108.424 518.453 108.358 518.434 108.296C518.415 108.234 518.376 108.179 518.323 108.141V108.141C518.302 108.127 518.279 108.115 518.256 108.107V108.107Z" fill="#4D8AF0"/>
<path id="Vector_85" d="M456.178 128.602C456.04 128.543 455.929 128.437 455.866 128.304C455.803 128.17 455.792 128.019 455.836 127.879C455.843 127.857 455.848 127.835 455.849 127.812V127.812C455.854 127.748 455.837 127.683 455.801 127.629C455.765 127.575 455.711 127.533 455.649 127.511C455.587 127.488 455.519 127.486 455.455 127.505C455.392 127.523 455.336 127.561 455.296 127.613V127.613C455.282 127.631 455.271 127.651 455.262 127.671C455.202 127.806 455.093 127.914 454.956 127.976C454.819 128.037 454.664 128.047 454.52 128.004C454.498 127.997 454.475 127.993 454.452 127.992V127.992C454.385 127.987 454.32 128.004 454.264 128.039C454.208 128.074 454.166 128.126 454.143 128.187C454.12 128.247 454.117 128.314 454.136 128.376C454.155 128.438 454.194 128.492 454.247 128.531V128.531C454.266 128.544 454.286 128.555 454.307 128.564C454.445 128.623 454.557 128.729 454.62 128.862C454.683 128.995 454.693 129.147 454.649 129.287C454.642 129.309 454.638 129.331 454.636 129.354V129.354C454.632 129.418 454.649 129.483 454.685 129.537C454.721 129.591 454.774 129.633 454.836 129.655C454.898 129.678 454.966 129.68 455.03 129.661C455.094 129.643 455.149 129.605 455.189 129.553C455.203 129.535 455.214 129.515 455.223 129.495C455.283 129.36 455.392 129.252 455.529 129.19C455.666 129.129 455.821 129.119 455.965 129.162C455.987 129.168 456.01 129.173 456.034 129.174V129.174C456.1 129.179 456.166 129.162 456.221 129.127C456.277 129.092 456.32 129.04 456.343 128.979C456.366 128.919 456.368 128.852 456.349 128.79C456.33 128.728 456.291 128.674 456.238 128.635V128.635C456.219 128.622 456.199 128.611 456.178 128.602Z" fill="#FDD835"/>
<path id="Vector_86" d="M544.456 213.178C544.318 213.119 544.207 213.013 544.144 212.88C544.081 212.747 544.07 212.595 544.114 212.455C544.121 212.433 544.126 212.411 544.127 212.388C544.132 212.324 544.115 212.259 544.078 212.205C544.042 212.151 543.989 212.109 543.927 212.087C543.865 212.065 543.797 212.062 543.733 212.081C543.669 212.099 543.614 212.137 543.574 212.189V212.189C543.56 212.207 543.549 212.227 543.54 212.248C543.48 212.382 543.371 212.49 543.234 212.552C543.097 212.613 542.942 212.623 542.798 212.58C542.776 212.574 542.753 212.569 542.73 212.568V212.568C542.663 212.563 542.597 212.58 542.542 212.615C542.486 212.65 542.443 212.702 542.42 212.763C542.397 212.824 542.395 212.89 542.414 212.952C542.433 213.014 542.472 213.068 542.525 213.107V213.107C542.544 213.12 542.564 213.132 542.585 213.14C542.723 213.199 542.834 213.305 542.897 213.438C542.96 213.572 542.971 213.723 542.927 213.863C542.92 213.885 542.915 213.907 542.914 213.93V213.93C542.909 213.995 542.926 214.059 542.962 214.113C542.999 214.167 543.052 214.209 543.114 214.231C543.176 214.254 543.244 214.256 543.308 214.238C543.371 214.219 543.427 214.181 543.467 214.129V214.129C543.481 214.111 543.492 214.091 543.501 214.071C543.561 213.936 543.67 213.828 543.807 213.766C543.944 213.705 544.099 213.695 544.243 213.738C544.265 213.745 544.288 213.749 544.311 213.75V213.75C544.378 213.755 544.444 213.738 544.499 213.703C544.555 213.668 544.598 213.616 544.621 213.555C544.644 213.495 544.646 213.428 544.627 213.366C544.608 213.304 544.569 213.25 544.516 213.211V213.211C544.497 213.198 544.477 213.187 544.456 213.178V213.178Z" fill="#FDD835"/>
<path id="Vector_87" d="M482.429 118.468C482.983 118.468 483.431 118.031 483.431 117.492C483.431 116.953 482.983 116.516 482.429 116.516C481.876 116.516 481.428 116.953 481.428 117.492C481.428 118.031 481.876 118.468 482.429 118.468Z" fill="#F55F44"/>
<path id="Vector_88" d="M554.185 130.666C554.739 130.666 555.187 130.228 555.187 129.689C555.187 129.15 554.739 128.713 554.185 128.713C553.632 128.713 553.184 129.15 553.184 129.689C553.184 130.228 553.632 130.666 554.185 130.666Z" fill="#F55F44"/>
<path id="Vector_89" d="M548.512 159.78C549.066 159.78 549.514 159.343 549.514 158.803C549.514 158.264 549.066 157.827 548.512 157.827C547.959 157.827 547.511 158.264 547.511 158.803C547.511 159.343 547.959 159.78 548.512 159.78Z" fill="#4D8AF0"/>
<path id="Vector_90" opacity="0.5" d="M437.54 111.961C438.093 111.961 438.542 111.524 438.542 110.985C438.542 110.445 438.093 110.008 437.54 110.008C436.987 110.008 436.539 110.445 436.539 110.985C436.539 111.524 436.987 111.961 437.54 111.961Z" fill="#47E6B1"/>
</g>
</g>
</g>
</g>
</g>
</g>
</g>
</g>
</g>
<defs>
<linearGradient id="paint0_linear" x1="474.712" y1="280" x2="474.712" y2="713" gradientUnits="userSpaceOnUse">
<stop stop-color="#5F29F9"/>
<stop offset="0.5" stop-color="#A59FFC"/>
<stop offset="1" stop-color="#C550FC"/>
</linearGradient>
<linearGradient id="paint1_linear" x1="490.606" y1="209.063" x2="490.606" y2="125.135" gradientUnits="userSpaceOnUse">
<stop stop-color="#808080" stop-opacity="0.25"/>
<stop offset="0.54" stop-color="#808080" stop-opacity="0.12"/>
<stop offset="1" stop-color="#808080" stop-opacity="0.1"/>
</linearGradient>
<linearGradient id="paint2_linear" x1="6692.69" y1="9329" x2="6692.69" y2="5711.67" gradientUnits="userSpaceOnUse">
<stop stop-color="#808080" stop-opacity="0.25"/>
<stop offset="0.54" stop-color="#808080" stop-opacity="0.12"/>
<stop offset="1" stop-color="#808080" stop-opacity="0.1"/>
</linearGradient>
<linearGradient id="paint3_linear" x1="6183.03" y1="5198.96" x2="6183.03" y2="3794.21" gradientUnits="userSpaceOnUse">
<stop stop-color="#808080" stop-opacity="0.25"/>
<stop offset="0.54" stop-color="#808080" stop-opacity="0.12"/>
<stop offset="1" stop-color="#808080" stop-opacity="0.1"/>
</linearGradient>
<linearGradient id="paint4_linear" x1="6692.69" y1="13997.5" x2="6692.69" y2="10380.2" gradientUnits="userSpaceOnUse">
<stop stop-color="#808080" stop-opacity="0.25"/>
<stop offset="0.54" stop-color="#808080" stop-opacity="0.12"/>
<stop offset="1" stop-color="#808080" stop-opacity="0.1"/>
</linearGradient>
<linearGradient id="paint5_linear" x1="6183.03" y1="8119.09" x2="6183.03" y2="6714.33" gradientUnits="userSpaceOnUse">
<stop stop-color="#808080" stop-opacity="0.25"/>
<stop offset="0.54" stop-color="#808080" stop-opacity="0.12"/>
<stop offset="1" stop-color="#808080" stop-opacity="0.1"/>
</linearGradient>
<linearGradient id="paint6_linear" x1="49073.8" y1="58317" x2="56237.6" y2="21332.2" gradientUnits="userSpaceOnUse">
<stop stop-color="#808080" stop-opacity="0.25"/>
<stop offset="0.54" stop-color="#808080" stop-opacity="0.12"/>
<stop offset="1" stop-color="#808080" stop-opacity="0.1"/>
</linearGradient>
<linearGradient id="paint7_linear" x1="11432.5" y1="24615.4" x2="12597.8" y2="18599.3" gradientUnits="userSpaceOnUse">
<stop stop-color="#808080" stop-opacity="0.25"/>
<stop offset="0.54" stop-color="#808080" stop-opacity="0.12"/>
<stop offset="1" stop-color="#808080" stop-opacity="0.1"/>
</linearGradient>
<linearGradient id="paint8_linear" x1="526.791" y1="205.468" x2="526.791" y2="149.085" gradientUnits="userSpaceOnUse">
<stop stop-color="#B3B3B3" stop-opacity="0.25"/>
<stop offset="0.54" stop-color="#B3B3B3" stop-opacity="0.1"/>
<stop offset="1" stop-color="#B3B3B3" stop-opacity="0.05"/>
</linearGradient>
<linearGradient id="paint9_linear" x1="508.913" y1="169.192" x2="508.913" y2="166.479" gradientUnits="userSpaceOnUse">
<stop stop-opacity="0.12"/>
<stop offset="0.55" stop-opacity="0.09"/>
<stop offset="1" stop-opacity="0.02"/>
</linearGradient>
<linearGradient id="paint10_linear" x1="19118.7" y1="4180.16" x2="19118.7" y2="3685.75" gradientUnits="userSpaceOnUse">
<stop stop-opacity="0.12"/>
<stop offset="0.55" stop-opacity="0.09"/>
<stop offset="1" stop-opacity="0.02"/>
</linearGradient>
<clipPath id="clip0">
<rect width="933" height="726" fill="white"/>
</clipPath>
<clipPath id="clip1">
<rect x="436.539" y="107" width="120.317" height="108.484" fill="white"/>
</clipPath>
</defs>
</svg>
