<svg width="48" height="48" viewBox="0 0 48 48" fill="none" xmlns="http://www.w3.org/2000/svg">
<g id="resumeIcon">
<g id="iconfinder_resume_4177633 1">
<path id="Vector" d="M39.4354 14.445C39.4306 14.4102 39.4306 14.3748 39.4354 14.34C39.1416 13.7041 38.7468 13.1213 38.2669 12.615L30.4567 4.755C29.9068 4.198 29.2541 3.75631 28.5358 3.45518C27.8175 3.15405 27.0478 2.99938 26.2706 3H11.8336C10.6567 3 9.52795 3.47411 8.69574 4.31802C7.86353 5.16194 7.396 6.30653 7.396 7.5V40.5C7.396 41.6935 7.86353 42.8381 8.69574 43.682C9.52795 44.5259 10.6567 45 11.8336 45H35.5008C36.6777 45 37.8064 44.5259 38.6386 43.682C39.4708 42.8381 39.9384 41.6935 39.9384 40.5V16.86C39.9376 16.0284 39.7663 15.206 39.4354 14.445ZM29.584 8.115L34.8943 13.5H31.0632C30.6709 13.5 30.2946 13.342 30.0172 13.0607C29.7398 12.7794 29.584 12.3978 29.584 12V8.115ZM36.98 40.5C36.98 40.8978 36.8241 41.2794 36.5467 41.5607C36.2693 41.842 35.8931 42 35.5008 42H11.8336C11.4413 42 11.065 41.842 10.7876 41.5607C10.5102 41.2794 10.3544 40.8978 10.3544 40.5V7.5C10.3544 7.10218 10.5102 6.72065 10.7876 6.43934C11.065 6.15804 11.4413 6 11.8336 6H26.2706H26.6256V12C26.6256 13.1935 27.0931 14.3381 27.9253 15.182C28.7575 16.0259 29.8863 16.5 31.0632 16.5H36.98C36.9873 16.6199 36.9873 16.7401 36.98 16.86V40.5Z" fill="#6C63FF"/>
<path id="Vector_2" d="M32.5423 19.5H28.1047C27.7124 19.5 27.3361 19.658 27.0587 19.9393C26.7813 20.2206 26.6255 20.6022 26.6255 21C26.6255 21.3978 26.7813 21.7794 27.0587 22.0607C27.3361 22.342 27.7124 22.5 28.1047 22.5H32.5423C32.9346 22.5 33.3108 22.342 33.5882 22.0607C33.8656 21.7794 34.0215 21.3978 34.0215 21C34.0215 20.6022 33.8656 20.2206 33.5882 19.9393C33.3108 19.658 32.9346 19.5 32.5423 19.5Z" fill="#4D4D4D"/>
<path id="Vector_3" d="M32.5423 27H14.7919C14.3996 27 14.0234 27.158 13.746 27.4393C13.4686 27.7206 13.3127 28.1022 13.3127 28.5C13.3127 28.8978 13.4686 29.2794 13.746 29.5607C14.0234 29.842 14.3996 30 14.7919 30H32.5423C32.9346 30 33.3109 29.842 33.5883 29.5607C33.8657 29.2794 34.0215 28.8978 34.0215 28.5C34.0215 28.1022 33.8657 27.7206 33.5883 27.4393C33.3109 27.158 32.9346 27 32.5423 27Z" fill="#4D4D4D"/>
<path id="Vector_4" d="M32.5423 33H14.7919C14.3996 33 14.0234 33.158 13.746 33.4393C13.4686 33.7206 13.3127 34.1022 13.3127 34.5C13.3127 34.8978 13.4686 35.2794 13.746 35.5607C14.0234 35.842 14.3996 36 14.7919 36H32.5423C32.9346 36 33.3109 35.842 33.5883 35.5607C33.8657 35.2794 34.0215 34.8978 34.0215 34.5C34.0215 34.1022 33.8657 33.7206 33.5883 33.4393C33.3109 33.158 32.9346 33 32.5423 33Z" fill="#4D4D4D"/>
<path id="Vector_5" d="M14.7919 24C15.1843 24 15.5605 23.842 15.8379 23.5607C16.1153 23.2794 16.2711 22.8978 16.2711 22.5C16.6066 22.0743 17.0448 21.7436 17.5433 21.54C17.9995 21.4374 18.4253 21.2266 18.7858 20.925C18.9383 20.9398 19.0918 20.9398 19.2443 20.925C19.4018 20.9398 19.5602 20.9398 19.7177 20.925C20.0824 21.2288 20.5135 21.4396 20.975 21.54C21.4503 21.7485 21.8708 22.067 22.2027 22.47C22.2355 22.8405 22.4029 23.1855 22.6724 23.4379C22.9419 23.6903 23.2943 23.8321 23.6611 23.8359C24.028 23.8396 24.3831 23.705 24.6576 23.4581C24.932 23.2113 25.1062 22.8698 25.1463 22.5C25.1463 20.64 23.2234 19.425 22.2915 18.99C22.7812 17.9857 23.0007 16.868 22.9275 15.75C22.8909 14.7673 22.4896 13.8349 21.8038 13.1395C21.1181 12.4441 20.1986 12.0371 19.2295 12C18.2605 12.0371 17.341 12.4441 16.6552 13.1395C15.9695 13.8349 15.5682 14.7673 15.5315 15.75C15.4584 16.868 15.6778 17.9857 16.1676 18.99C15.2357 19.5 13.3127 20.64 13.3127 22.5C13.3127 22.8978 13.4686 23.2794 13.746 23.5607C14.0234 23.842 14.3996 24 14.7919 24ZM19.2295 15C19.4118 15.0375 19.5792 15.1286 19.7108 15.262C19.8423 15.3954 19.9322 15.5651 19.9691 15.75C19.9691 16.875 19.9691 17.4 19.2887 18.06H19.2295C18.5787 17.4 18.5491 16.875 18.5491 15.75C18.5817 15.5728 18.6627 15.4085 18.7831 15.2759C18.9034 15.1432 19.0581 15.0476 19.2295 15Z" fill="#4D4D4D"/>
</g>
</g>
</svg>
