<svg width="1040" height="695" viewBox="0 0 1040 695" fill="none" xmlns="http://www.w3.org/2000/svg">
<g id="Svg Background">
<g id="Vector">
<path id="Vector_2" d="M981.717 507.117C947.635 538.298 956.26 581.637 973.421 615.966C979.199 627.457 985.729 639.601 981.849 652.302C977.103 667.834 957.754 679.798 937.919 686.495C901.773 698.709 859.816 697.705 828.689 683.889C801.788 671.946 783.504 651.569 756.05 640.213C710.164 621.277 648.891 631.408 595.981 647.683C558.547 659.185 517.448 673.854 481.971 664.652C457.01 658.176 440.831 640.735 432.791 621.905C428.912 612.813 426.369 602.908 418.099 595.895C413.146 591.728 406.542 588.867 399.7 586.542C337.205 565.086 254.752 580.945 194.289 556.817C153.487 540.552 129.211 507.85 120.148 473.135C111.085 438.421 115.55 401.497 121.609 365.161C125.909 339.342 132.076 311.72 155.757 291.022C180.809 269.129 221.446 259.806 257.286 262.432C293.127 265.057 324.642 278.06 352.072 293.758C386.352 313.337 417.587 338.167 461.112 344.964C490.754 349.608 522.698 345.25 553.85 342.956C605.936 339.166 657.55 341.274 708.818 343.779C757.907 346.179 807.31 348.996 853.411 359.227C886.032 366.466 911.472 380.884 942.055 390.473C961.989 396.723 984.193 397.817 1002.87 406.035C1025.89 416.151 1046.23 434.495 1038.23 457.161C1030.62 478.743 999.802 490.551 981.717 507.117Z" fill="#56BAE8"/>
</g>
<g id="Group 21">
<g id="Group 20">
<path id="Vector_3" d="M823.022 39.4268C823.022 39.4268 834.674 64.0259 842.442 66.6152L820.432 100.277L802.307 78.2675C802.307 78.2675 803.601 62.7312 799.717 56.2577C795.833 49.7843 823.022 39.4268 823.022 39.4268Z" fill="#FBBEBE"/>
<path id="Vector_4" d="M804.896 61.4375C818.482 61.4375 829.495 50.4241 829.495 36.8384C829.495 23.2527 818.482 12.2393 804.896 12.2393C791.31 12.2393 780.297 23.2527 780.297 36.8384C780.297 50.4241 791.31 61.4375 804.896 61.4375Z" fill="#FBBEBE"/>
<path id="Vector_5" d="M771.234 212.916L777.707 231.042L785.476 221.978L778.956 201.333L771.234 212.916Z" fill="#FBBEBE"/>
<path id="Vector_6" d="M789.36 203.853C789.36 203.853 781.592 236.22 785.476 251.757C789.36 267.293 801.012 373.457 801.012 373.457L808.78 457.612L839.853 460.202L835.969 361.805L839.853 276.356L861.862 359.216V460.202L899.408 461.496L895.524 330.733C895.524 330.733 898.114 229.747 881.283 216.8C864.452 203.853 861.862 201.264 861.862 201.264L789.36 203.853Z" fill="#2F2E41"/>
<path id="Vector_7" d="M815.254 456.317L812.664 465.38L808.78 477.032C808.78 477.032 797.128 500.337 816.548 496.453C835.969 492.569 833.379 483.506 833.379 483.506C833.379 483.506 839.853 479.622 838.558 478.327C837.263 477.032 837.263 457.612 837.263 457.612L815.254 456.317Z" fill="#2F2E41"/>
<path id="Vector_8" d="M890.346 456.317L892.935 465.38L896.819 477.032C896.819 477.032 908.471 500.337 889.051 496.453C869.631 492.569 872.22 483.506 872.22 483.506C872.22 483.506 865.747 479.622 867.041 478.327C868.336 477.032 868.336 457.612 868.336 457.612L890.346 456.317Z" fill="#2F2E41"/>
<path id="Vector_9" d="M820.432 84.7419L836.267 61.4375L865.747 76.9738L869.631 211.621C869.631 211.621 852.8 201.264 826.906 214.211C801.012 227.158 784.181 218.095 784.181 218.095L799.717 159.834L793.244 82.1525L802.503 73.7488L820.432 84.7419Z" fill="#E6E6E6"/>
<path id="Vector_10" d="M802.506 71.2974L797.128 75.6784C797.128 75.6784 763.466 92.5093 762.171 104.162L785.476 167.601C785.476 167.601 791.949 181.843 786.771 187.022C781.592 192.2 776.413 205.147 777.708 211.621C779.002 218.094 769.939 245.283 780.297 245.283C790.655 245.283 815.254 183.138 813.959 158.538C812.664 133.939 811.768 69.5057 802.506 71.2974Z" fill="#2F2E41"/>
<path id="Vector_11" d="M773.823 96.3936L765.843 97.2472C765.843 97.2472 758.287 102.867 758.287 115.814C758.287 128.761 756.992 167.602 756.992 167.602C756.992 167.602 754.403 187.022 762.171 201.263C769.939 215.505 771.234 219.389 771.234 219.389L784.181 203.853V171.486L789.36 150.771L773.823 96.3936Z" fill="#2F2E41"/>
<path id="Vector_12" d="M832.375 56.1104L845.032 61.437C845.032 61.437 889.051 73.0892 895.524 92.5095L877.399 137.824C877.399 137.824 890.346 220.684 886.462 220.684H882.578C882.578 220.684 892.935 228.452 886.462 231.041C879.988 233.631 864.452 254.346 860.568 245.283C856.684 236.22 833.379 128.761 835.969 105.456C838.558 82.152 830.075 58.5518 832.375 56.1104Z" fill="#2F2E41"/>
<path id="Vector_13" d="M814.606 5.11808V2.52871H808.132C808.132 2.52871 797.775 -3.94477 788.712 3.82338C779.649 11.5915 775.765 15.4756 775.765 15.4756L771.881 20.6544L775.765 21.949L771.881 25.8331H775.765L773.176 29.7172L780.433 39.4274C780.433 39.4274 779.649 29.7172 787.417 29.7172C795.185 29.7172 804.248 19.3597 804.248 19.3597L823.669 33.6013C823.669 33.6013 822.374 25.8697 826.905 25.8514C826.905 25.8514 828.848 6.41278 814.606 5.11808Z" fill="#2F2E41"/>
<path id="Vector_14" d="M904.587 212.916L901.998 240.104C901.998 240.104 901.998 280.24 887.756 276.356C873.515 272.472 885.167 238.81 885.167 238.81L887.134 214.462L904.587 212.916Z" fill="#FBBEBE"/>
<path id="Vector_15" d="M876.104 86.0357C876.104 86.0357 892.935 79.5623 898.114 98.9827C903.292 118.403 909.766 157.244 909.766 157.244C915.176 170.971 915.176 186.241 909.766 199.968L905.882 219.389L883.872 216.799L878.693 172.78L873.515 117.108L876.104 86.0357Z" fill="#2F2E41"/>
<g id="Group 18">
<path id="Vector_16" d="M544.903 300.141V440.01L568.299 478.139L570.08 481.039H662.394L664.259 300.141H544.903Z" fill="#E6E6E6"/>
<path id="Vector_17" opacity="0.1" d="M544.903 300.141V440.01L568.299 478.139L569.735 300.141H544.903Z" fill="black"/>
<path id="Vector_18" d="M322.043 296.41V436.281L298.647 474.409L296.867 477.309H204.552L202.687 296.41H322.043Z" fill="#E6E6E6"/>
<path id="Vector_19" opacity="0.1" d="M322.043 296.41V436.281L298.647 474.409L297.211 296.41H322.043Z" fill="black"/>
<path id="Vector_20" d="M692.233 293.613V302.005H190.565V289.883L237.188 265.639H651.205L692.233 293.613Z" fill="#E6E6E6"/>
<path id="Vector_21" opacity="0.1" d="M692.233 293.613V302.005H190.565V289.883L692.233 293.613Z" fill="black"/>
<path id="Vector_22" d="M262.366 335.574H239.986L230.661 329.047H272.622L262.366 335.574Z" fill="#3F3D56"/>
<path id="Vector_23" d="M262.366 362.616H239.986L230.661 356.089H272.622L262.366 362.616Z" fill="#3F3D56"/>
<path id="Vector_24" d="M262.366 400.847H239.986L230.661 394.319H272.622L262.366 400.847Z" fill="#3F3D56"/>
<path id="Vector_25" d="M262.366 439.078H239.986L230.661 432.551H272.622L262.366 439.078Z" fill="#3F3D56"/>
<path id="Vector_26" d="M604.581 339.304H626.961L636.285 332.776H594.324L604.581 339.304Z" fill="#3F3D56"/>
<path id="Vector_27" d="M604.581 366.345H626.961L636.285 359.818H594.324L604.581 366.345Z" fill="#3F3D56"/>
<path id="Vector_28" d="M604.581 404.577H626.961L636.285 398.05H594.324L604.581 404.577Z" fill="#3F3D56"/>
<path id="Vector_29" d="M604.581 442.807H626.961L636.285 436.28H594.324L604.581 442.807Z" fill="#3F3D56"/>
<path id="Vector_30" d="M619.821 103.893H431.418C430.483 103.892 429.556 104.077 428.692 104.435C427.827 104.793 427.041 105.318 426.38 105.979C425.718 106.641 425.193 107.426 424.835 108.291C424.477 109.155 424.293 110.082 424.293 111.018V237.93C424.293 238.866 424.477 239.793 424.835 240.657C425.193 241.522 425.718 242.307 426.38 242.969C427.041 243.631 427.827 244.155 428.692 244.513C429.556 244.872 430.483 245.056 431.418 245.056H502.938L500.258 262.163C500.258 262.163 484.945 270.298 495.712 270.537C506.479 270.776 557.202 270.537 557.202 270.537C557.202 270.537 567.011 270.537 551.46 261.923L548.939 245.056H619.821C620.756 245.056 621.683 244.872 622.548 244.513C623.412 244.155 624.198 243.631 624.859 242.969C625.521 242.307 626.046 241.522 626.404 240.657C626.762 239.793 626.946 238.866 626.946 237.93V111.018C626.946 110.082 626.762 109.155 626.404 108.291C626.046 107.426 625.521 106.641 624.859 105.979C624.198 105.318 623.412 104.793 622.548 104.435C621.683 104.077 620.756 103.892 619.821 103.893V103.893Z" fill="#3F3D56"/>
<path id="Vector_31" d="M620.127 111.43H431.112V217.182H620.127V111.43Z" fill="#F2F2F2"/>
<path id="Vector_32" d="M525.62 109.276C526.28 109.276 526.816 108.741 526.816 108.08C526.816 107.419 526.28 106.884 525.62 106.884C524.959 106.884 524.423 107.419 524.423 108.08C524.423 108.741 524.959 109.276 525.62 109.276Z" fill="#F2F2F2"/>
<path id="Vector_33" d="M525.62 239.911C528.13 239.911 530.166 237.876 530.166 235.365C530.166 232.855 528.13 230.819 525.62 230.819C523.109 230.819 521.074 232.855 521.074 235.365C521.074 237.876 523.109 239.911 525.62 239.911Z" fill="#F2F2F2"/>
<path id="Vector_34" d="M518.536 283.457V285.85H389.815V283.936L389.992 283.457L393.164 274.844H515.904L518.536 283.457Z" fill="#3F3D56"/>
<path id="Vector_35" d="M568.072 281.115C567.837 282.118 566.952 283.175 564.952 284.175C557.774 287.764 543.179 283.218 543.179 283.218C543.179 283.218 531.934 281.304 531.934 276.28C532.25 276.064 532.579 275.868 532.92 275.694C535.938 274.097 545.943 270.158 563.685 275.86C564.992 276.271 566.159 277.036 567.057 278.07C567.455 278.462 567.754 278.942 567.931 279.471C568.107 280 568.156 280.564 568.072 281.115Z" fill="#3F3D56"/>
<path id="Vector_36" opacity="0.1" d="M568.072 281.115C559.287 284.482 551.456 284.733 543.419 279.151C540.38 276.904 536.7 275.692 532.92 275.694C535.938 274.097 545.944 270.158 563.685 275.86C564.992 276.271 566.16 277.036 567.058 278.07C567.455 278.462 567.755 278.942 567.931 279.471C568.107 280 568.156 280.564 568.072 281.115Z" fill="black"/>
<path id="Vector_37" d="M557.057 279.15C558.774 279.15 560.167 278.722 560.167 278.193C560.167 277.665 558.774 277.236 557.057 277.236C555.339 277.236 553.946 277.665 553.946 278.193C553.946 278.722 555.339 279.15 557.057 279.15Z" fill="#F2F2F2"/>
<path id="Vector_38" opacity="0.1" d="M518.536 283.457V285.85H389.815V283.936L389.992 283.457H518.536Z" fill="black"/>
<g id="Group 13">
<path id="Rectangle 55" d="M507.729 146.162H485.234V151.578H507.729V146.162Z" fill="#6C63FF"/>
<path id="Rectangle 56" d="M585.629 146.162H577.714V151.578H585.629V146.162Z" fill="#6C63FF"/>
<path id="Rectangle 57" d="M601.458 146.162H593.543V151.578H601.458V146.162Z" fill="#6C63FF"/>
<path id="Rectangle 58" d="M569.382 146.162H515.644V151.578H569.382V146.162Z" fill="#6C63FF"/>
<path id="Rectangle 59" d="M479.402 181.154H456.907V186.57H479.402V181.154Z" fill="#6C63FF"/>
<path id="Rectangle 60" d="M557.302 181.154H549.387V186.57H557.302V181.154Z" fill="#6C63FF"/>
<path id="Rectangle 61" d="M573.131 181.154H565.216V186.57H573.131V181.154Z" fill="#6C63FF"/>
<path id="Rectangle 62" d="M541.055 181.154H487.317V186.57H541.055V181.154Z" fill="#6C63FF"/>
<path id="Rectangle 63" d="M572.298 158.243H549.803V163.659H572.298V158.243Z" fill="#6C63FF"/>
<path id="Rectangle 64" d="M602.708 158.243H580.213V163.659H602.708V158.243Z" fill="#6C63FF"/>
<path id="Rectangle 66" d="M464.822 158.243H456.907V163.659H464.822V158.243Z" fill="#6C63FF"/>
<path id="Rectangle 67" d="M480.652 158.243H472.737V163.659H480.652V158.243Z" fill="#6C63FF"/>
<path id="Rectangle 68" d="M542.305 158.243H488.567V163.659H542.305V158.243Z" fill="#6C63FF"/>
<path id="Rectangle 69" d="M525.642 169.906H503.147V175.322H525.642V169.906Z" fill="#6C63FF"/>
<path id="Rectangle 70" d="M495.232 169.906H472.737V175.322H495.232V169.906Z" fill="#6C63FF"/>
<path id="Rectangle 71" d="M464.822 169.906H456.907V175.322H464.822V169.906Z" fill="#6C63FF"/>
<path id="Rectangle 73" d="M602.708 169.906H594.793V175.322H602.708V169.906Z" fill="#6C63FF"/>
<path id="Rectangle 74" d="M586.878 169.906H533.14V175.322H586.878V169.906Z" fill="#6C63FF"/>
</g>
</g>
<g id="Group 16">
<g id="Group 19">
<g id="undraw_file_searching_duff 1">
<g clip-path="url(#clip0)">
<g id="Group" opacity="0.5">
<path id="Vector_39" opacity="0.5" d="M543.551 125.135H476.908V209.062H543.551V125.135Z" fill="url(#paint0_linear)"/>
</g>
<path id="Vector_40" d="M542.337 126.274H477.776V207.274H542.337V126.274Z" fill="#F2F2F2"/>
<path id="Vector_41" d="M505.024 129.689H482.81V130.34H505.024V129.689Z" fill="#E0E0E0"/>
<path id="Vector_42" opacity="0.7" d="M505.024 132.617H482.81V133.268H505.024V132.617Z" fill="#6C63FF"/>
<path id="Vector_43" d="M530.536 129.689H508.322V130.34H530.536V129.689Z" fill="#E0E0E0"/>
<path id="Vector_44" d="M534.006 148.232H511.792V148.883H534.006V148.232Z" fill="#E0E0E0"/>
<path id="Vector_45" d="M534.528 150.021H512.313V150.671H534.528V150.021Z" fill="#E0E0E0"/>
<path id="Vector_46" d="M535.569 151.811H513.355V152.461H535.569V151.811Z" fill="#E0E0E0"/>
<path id="Vector_47" d="M534.006 177.021H511.792V177.671H534.006V177.021Z" fill="#E0E0E0"/>
<path id="Vector_48" d="M534.528 178.811H512.313V179.461H534.528V178.811Z" fill="#E0E0E0"/>
<path id="Vector_49" d="M535.569 180.599H513.355V181.249H535.569V180.599Z" fill="#E0E0E0"/>
<g id="Group_2" opacity="0.5">
<path id="Vector_50" opacity="0.5" d="M506.586 141.562H482.984V164.008H506.586V141.562Z" fill="url(#paint1_linear)"/>
</g>
<path id="Vector_51" d="M506.363 142.052H483.132V163.521H506.363V142.052Z" fill="#F5F5F5"/>
<g id="Group_3" opacity="0.5">
<path id="Vector_52" opacity="0.5" d="M505.618 143.353H483.951V157.34H505.618V143.353Z" fill="url(#paint2_linear)"/>
</g>
<path id="&#60;Rectangle&#62;" d="M505.468 143.516H484.1V157.016H505.468V143.516Z" fill="white"/>
<g id="Group_4">
<path id="Vector_53" opacity="0.4" d="M482.288 156.528L487.669 148.721L489.925 152.136L494.785 147.42L498.95 152.136L502.594 145.143L511.966 159.13L481.594 158.154L482.288 156.528Z" fill="#6C63FF"/>
<path id="Vector_54" opacity="0.4" d="M486.453 146.93C487.316 146.93 488.015 146.275 488.015 145.467C488.015 144.658 487.316 144.003 486.453 144.003C485.591 144.003 484.892 144.658 484.892 145.467C484.892 146.275 485.591 146.93 486.453 146.93Z" fill="#6C63FF"/>
</g>
<g id="Group_5" opacity="0.5">
<path id="Vector_55" opacity="0.5" d="M506.586 170.353H482.984V192.798H506.586V170.353Z" fill="url(#paint3_linear)"/>
</g>
<path id="Vector_56" d="M506.363 170.84H483.132V192.309H506.363V170.84Z" fill="#F5F5F5"/>
<g id="Group_6" opacity="0.5">
<path id="Vector_57" opacity="0.5" d="M505.618 172.142H483.951V186.129H505.618V172.142Z" fill="url(#paint4_linear)"/>
</g>
<path id="&#60;Rectangle&#62;_2" d="M505.468 172.304H484.1V185.804H505.468V172.304Z" fill="white"/>
<g id="Group_7">
<path id="Vector_58" opacity="0.4" d="M482.288 185.315L487.669 177.508L489.925 180.924L494.785 176.207L498.95 180.924L502.594 173.93L511.966 187.917L481.594 186.942L482.288 185.315Z" fill="#BDBDBD"/>
<path id="Vector_59" opacity="0.4" d="M486.453 175.72C487.316 175.72 488.015 175.064 488.015 174.256C488.015 173.447 487.316 172.792 486.453 172.792C485.591 172.792 484.892 173.447 484.892 174.256C484.892 175.064 485.591 175.72 486.453 175.72Z" fill="#BDBDBD"/>
</g>
<g id="Group_8" opacity="0.5">
<path id="Vector_60" opacity="0.5" d="M504.148 120.988L486.692 203.306L552.057 215.48L569.512 133.162L504.148 120.988Z" fill="url(#paint5_linear)"/>
</g>
<path id="Vector_61" d="M504.761 122.264L487.915 201.71L551.237 213.504L568.084 134.058L504.761 122.264Z" fill="white"/>
<path id="Vector_62" d="M553.527 135.158L508.587 126.788L508.452 127.426L553.391 135.796L553.527 135.158Z" fill="#E0E0E0"/>
<path id="Vector_63" d="M540.74 195.461L495.801 187.091L495.665 187.729L540.605 196.099L540.74 195.461Z" fill="#E0E0E0"/>
<path id="Vector_64" d="M529.747 197.226L495.021 190.759L494.886 191.397L529.612 197.864L529.747 197.226Z" fill="#E0E0E0"/>
<path id="Vector_65" opacity="0.7" d="M507.18 196.839L494.243 194.43L494.108 195.068L507.044 197.477L507.18 196.839Z" fill="#6C63FF"/>
<path id="Vector_66" opacity="0.7" d="M530.277 134.643L507.808 130.458L507.673 131.096L530.142 135.281L530.277 134.643Z" fill="#6C63FF"/>
<path id="Vector_67" d="M547.544 141.672L507.032 134.127L506.896 134.765L547.409 142.31L547.544 141.672Z" fill="#E0E0E0"/>
<path id="Vector_68" opacity="0.7" d="M516.125 139.636L506.253 137.797L506.118 138.435L515.99 140.274L516.125 139.636Z" fill="#3AD29F"/>
<path id="Vector_69" d="M550.415 149.836L505.476 141.466L505.34 142.104L550.28 150.474L550.415 149.836Z" fill="#E0E0E0"/>
<g id="Group_9" opacity="0.5">
<path id="Vector_70" opacity="0.5" d="M509.435 156.964L504.835 178.659L545.177 186.173L549.777 164.477L509.435 156.964Z" fill="url(#paint6_linear)"/>
</g>
<path id="Vector_71" d="M549.496 164.589L509.664 157.171L505.165 178.388L544.997 185.807L549.496 164.589Z" fill="white"/>
<path id="Vector_72" d="M549.637 153.506L504.698 145.136L504.562 145.774L549.502 154.144L549.637 153.506Z" fill="#E0E0E0"/>
<path id="Vector_73" d="M518.163 161.739L513.226 160.819L509.945 176.294L514.882 177.213L518.163 161.739Z" fill="#6C63FF"/>
<path id="Vector_74" d="M525.932 168.493L520.995 167.573L518.796 177.943L523.733 178.862L525.932 168.493Z" fill="#3AD29F"/>
<path id="Vector_75" d="M533.77 174.927L528.833 174.008L527.649 179.591L532.586 180.51L533.77 174.927Z" fill="#F55F44"/>
<path id="Vector_76" d="M543.839 170.833L538.902 169.913L536.5 181.24L541.437 182.16L543.839 170.833Z" fill="#FDD835"/>
<path id="Vector_77" d="M558.243 155.748C556.102 153.66 553.536 151.996 550.698 150.851C547.86 149.707 544.807 149.106 541.717 149.085C538.628 149.063 535.565 149.62 532.709 150.724C529.853 151.829 527.261 153.457 525.086 155.514C516.318 163.798 516.17 177.287 524.746 185.746C528.514 189.463 533.563 191.81 539 192.372C544.438 192.935 549.912 191.676 554.453 188.819L571.2 205.143C571.408 205.345 571.692 205.462 571.991 205.467C572.29 205.473 572.579 205.367 572.795 205.172L576.968 201.412C577.183 201.218 577.308 200.951 577.314 200.671C577.319 200.391 577.206 200.12 576.999 199.917L560.257 183.594C563.467 179.471 565.025 174.42 564.656 169.328C564.288 164.235 562.017 159.427 558.243 155.748ZM553.027 181.994C550.664 184.123 547.681 185.547 544.455 186.087C541.229 186.626 537.904 186.258 534.902 185.027C531.899 183.796 529.354 181.758 527.587 179.171C525.82 176.584 524.912 173.565 524.976 170.494C525.041 167.423 526.075 164.439 527.949 161.92C529.823 159.4 532.452 157.458 535.504 156.338C538.556 155.219 541.893 154.973 545.094 155.631C548.295 156.289 551.216 157.822 553.487 160.036C554.996 161.506 556.18 163.24 556.973 165.139C557.766 167.039 558.153 169.065 558.11 171.104C558.067 173.144 557.596 175.155 556.724 177.023C555.852 178.892 554.595 180.581 553.027 181.994V181.994Z" fill="url(#paint7_linear)"/>
<path id="Vector_78" d="M529.27 166.479C527.406 166.479 527.403 169.193 529.27 169.193C531.136 169.193 531.136 166.479 529.27 166.479Z" fill="url(#paint8_linear)"/>
<path id="Vector_79" d="M542.26 157.784C537.244 157.678 532.68 160.036 530.253 163.596C529.461 164.757 531.71 165.784 532.497 164.628C534.507 161.681 538.324 159.809 542.454 159.906C546.782 160.008 550.72 162.328 552.805 165.548C553.596 166.77 555.669 165.66 554.886 164.445C552.35 160.546 547.44 157.899 542.26 157.784Z" fill="url(#paint9_linear)"/>
<path id="Vector_80" d="M544.902 127.572C541.502 124.251 537.429 121.602 532.923 119.781C528.418 117.96 523.569 117.004 518.664 116.97C513.759 116.935 508.896 117.822 504.361 119.579C499.827 121.336 495.712 123.927 492.259 127.2C478.338 140.381 478.102 161.844 491.719 175.305C497.701 181.218 505.718 184.952 514.351 185.847C522.983 186.741 531.675 184.738 538.885 180.191L565.472 206.168C565.801 206.49 566.253 206.675 566.728 206.684C567.202 206.693 567.661 206.524 568.004 206.215L574.629 200.231C574.972 199.922 575.169 199.498 575.178 199.052C575.188 198.606 575.008 198.175 574.679 197.853L548.09 171.878C553.187 165.319 555.662 157.283 555.079 149.18C554.496 141.078 550.893 133.428 544.902 127.572ZM536.62 169.317C532.869 172.704 528.133 174.97 523.011 175.829C517.889 176.688 512.61 176.1 507.843 174.142C503.076 172.183 499.035 168.941 496.229 164.825C493.424 160.709 491.982 155.904 492.084 151.018C492.186 146.132 493.829 141.384 496.804 137.375C499.779 133.365 503.954 130.275 508.799 128.494C513.644 126.712 518.943 126.321 524.025 127.368C529.108 128.415 533.745 130.855 537.352 134.378C539.746 136.717 541.627 139.476 542.886 142.498C544.145 145.52 544.759 148.745 544.691 151.989C544.623 155.234 543.875 158.434 542.49 161.407C541.106 164.38 539.111 167.068 536.62 169.317Z" fill="#6C63FF"/>
<path id="Vector_81" d="M531.087 165.653C529.224 165.653 529.221 168.368 531.087 168.368C532.954 168.368 532.954 165.653 531.087 165.653Z" fill="#6C63FF"/>
<path id="Vector_82" d="M544.077 156.959C539.062 156.854 534.498 159.212 532.071 162.771C531.279 163.933 533.527 164.959 534.315 163.803C536.324 160.856 540.142 158.985 544.272 159.082C548.6 159.184 552.538 161.504 554.623 164.724C555.413 165.946 557.486 164.835 556.703 163.621C554.163 159.71 549.259 157.064 544.077 156.959Z" fill="#6C63FF"/>
<path id="Vector_83" d="M472.569 199.466H472.049V202.23H472.569V199.466Z" fill="#47E6B1"/>
<path id="Vector_84" d="M473.784 201.092V200.604H470.835V201.092H473.784Z" fill="#47E6B1"/>
<path id="Vector_85" d="M538.986 108.108C538.842 108.049 538.727 107.943 538.661 107.81C538.596 107.676 538.585 107.525 538.631 107.385C538.638 107.363 538.642 107.341 538.644 107.318V107.318C538.649 107.253 538.631 107.189 538.594 107.135C538.556 107.081 538.501 107.039 538.436 107.017C538.371 106.994 538.301 106.992 538.234 107.01C538.168 107.029 538.11 107.067 538.069 107.119V107.119C538.055 107.137 538.043 107.157 538.033 107.177C537.971 107.312 537.858 107.42 537.715 107.482C537.573 107.543 537.412 107.553 537.262 107.51C537.239 107.503 537.215 107.499 537.191 107.498C537.121 107.493 537.052 107.51 536.994 107.545C536.935 107.581 536.891 107.633 536.867 107.694C536.844 107.756 536.842 107.822 536.862 107.885C536.883 107.947 536.925 108.001 536.981 108.039V108.039C537 108.053 537.021 108.064 537.044 108.073C537.187 108.131 537.303 108.237 537.368 108.371C537.434 108.504 537.445 108.655 537.399 108.796C537.391 108.817 537.387 108.84 537.385 108.862C537.38 108.928 537.397 108.993 537.435 109.048C537.473 109.104 537.529 109.146 537.595 109.168C537.661 109.19 537.733 109.192 537.8 109.172C537.867 109.152 537.925 109.112 537.965 109.059V109.059C537.979 109.041 537.991 109.021 538.001 109C538.063 108.866 538.176 108.757 538.319 108.696C538.461 108.635 538.622 108.625 538.772 108.667C538.795 108.674 538.819 108.679 538.843 108.68V108.68C538.912 108.684 538.981 108.668 539.039 108.633C539.097 108.598 539.141 108.546 539.165 108.485C539.189 108.424 539.191 108.358 539.171 108.296C539.152 108.234 539.111 108.18 539.056 108.141V108.141C539.034 108.127 539.011 108.116 538.986 108.108V108.108Z" fill="#4D8AF0"/>
<path id="Vector_86" d="M474.425 128.602C474.282 128.543 474.166 128.437 474.1 128.304C474.035 128.17 474.024 128.019 474.07 127.879C474.077 127.857 474.082 127.835 474.083 127.812V127.812C474.088 127.748 474.07 127.683 474.033 127.629C473.995 127.575 473.94 127.533 473.875 127.511C473.811 127.488 473.74 127.486 473.674 127.505C473.607 127.523 473.549 127.561 473.508 127.613V127.613C473.494 127.631 473.482 127.651 473.473 127.671C473.41 127.806 473.297 127.914 473.155 127.976C473.012 128.037 472.851 128.047 472.701 128.004C472.678 127.997 472.654 127.993 472.63 127.992V127.992C472.561 127.987 472.492 128.004 472.435 128.039C472.377 128.074 472.332 128.126 472.308 128.187C472.284 128.247 472.282 128.314 472.302 128.376C472.321 128.438 472.362 128.492 472.417 128.531V128.531C472.437 128.544 472.458 128.555 472.48 128.564C472.623 128.623 472.739 128.729 472.804 128.862C472.87 128.995 472.881 129.147 472.835 129.287C472.828 129.309 472.823 129.331 472.822 129.354V129.354C472.817 129.418 472.835 129.483 472.872 129.537C472.91 129.591 472.965 129.633 473.03 129.655C473.094 129.678 473.165 129.68 473.231 129.661C473.297 129.643 473.356 129.605 473.397 129.553C473.411 129.535 473.423 129.515 473.432 129.495C473.495 129.36 473.608 129.252 473.75 129.19C473.893 129.129 474.054 129.119 474.204 129.162C474.227 129.168 474.251 129.173 474.275 129.174V129.174C474.344 129.179 474.412 129.162 474.47 129.127C474.528 129.092 474.573 129.04 474.597 128.979C474.62 128.919 474.623 128.852 474.603 128.79C474.583 128.728 474.543 128.674 474.488 128.635V128.635C474.468 128.622 474.447 128.611 474.425 128.602Z" fill="#FDD835"/>
<path id="Vector_87" d="M566.234 213.178C566.09 213.119 565.975 213.013 565.909 212.88C565.844 212.747 565.833 212.595 565.879 212.455C565.886 212.433 565.89 212.411 565.892 212.388C565.897 212.324 565.879 212.259 565.841 212.205C565.804 212.151 565.749 212.109 565.684 212.087C565.619 212.065 565.548 212.062 565.482 212.081C565.416 212.099 565.358 212.137 565.317 212.189V212.189C565.302 212.207 565.29 212.227 565.281 212.248C565.219 212.382 565.105 212.49 564.963 212.552C564.821 212.613 564.66 212.623 564.51 212.58C564.487 212.574 564.463 212.569 564.438 212.568V212.568C564.37 212.563 564.301 212.58 564.243 212.615C564.185 212.65 564.141 212.702 564.117 212.763C564.093 212.824 564.091 212.89 564.11 212.952C564.13 213.014 564.171 213.068 564.226 213.107V213.107C564.245 213.12 564.266 213.132 564.288 213.14C564.432 213.199 564.548 213.305 564.613 213.438C564.679 213.572 564.689 213.723 564.644 213.863C564.636 213.885 564.632 213.907 564.63 213.93V213.93C564.625 213.995 564.643 214.059 564.681 214.113C564.718 214.167 564.773 214.209 564.838 214.231C564.903 214.254 564.974 214.256 565.04 214.238C565.106 214.219 565.164 214.181 565.205 214.129V214.129C565.22 214.111 565.232 214.091 565.241 214.071C565.303 213.936 565.417 213.828 565.559 213.766C565.701 213.705 565.863 213.695 566.012 213.738C566.035 213.745 566.059 213.749 566.084 213.75V213.75C566.152 213.755 566.221 213.738 566.279 213.703C566.337 213.668 566.381 213.616 566.405 213.555C566.429 213.495 566.431 213.428 566.412 213.366C566.392 213.304 566.351 213.25 566.296 213.211V213.211C566.277 213.198 566.256 213.187 566.234 213.178V213.178Z" fill="#FDD835"/>
<path id="Vector_88" d="M501.726 118.468C502.302 118.468 502.768 118.031 502.768 117.492C502.768 116.953 502.302 116.516 501.726 116.516C501.151 116.516 500.685 116.953 500.685 117.492C500.685 118.031 501.151 118.468 501.726 118.468Z" fill="#F55F44"/>
<path id="Vector_89" d="M576.353 130.666C576.928 130.666 577.394 130.228 577.394 129.689C577.394 129.15 576.928 128.713 576.353 128.713C575.777 128.713 575.311 129.15 575.311 129.689C575.311 130.228 575.777 130.666 576.353 130.666Z" fill="#F55F44"/>
<path id="Vector_90" d="M570.453 159.78C571.028 159.78 571.494 159.343 571.494 158.803C571.494 158.264 571.028 157.827 570.453 157.827C569.877 157.827 569.411 158.264 569.411 158.803C569.411 159.343 569.877 159.78 570.453 159.78Z" fill="#4D8AF0"/>
<path id="Vector_91" opacity="0.5" d="M455.042 111.961C455.617 111.961 456.084 111.524 456.084 110.985C456.084 110.446 455.617 110.009 455.042 110.009C454.466 110.009 454 110.446 454 110.985C454 111.524 454.466 111.961 455.042 111.961Z" fill="#47E6B1"/>
</g>
</g>
</g>
</g>
</g>
</g>
</g>
<defs>
<linearGradient id="paint0_linear" x1="510.23" y1="209.062" x2="510.23" y2="125.135" gradientUnits="userSpaceOnUse">
<stop stop-color="#808080" stop-opacity="0.25"/>
<stop offset="0.54" stop-color="#808080" stop-opacity="0.12"/>
<stop offset="1" stop-color="#808080" stop-opacity="0.1"/>
</linearGradient>
<linearGradient id="paint1_linear" x1="6960.4" y1="9329" x2="6960.4" y2="5711.67" gradientUnits="userSpaceOnUse">
<stop stop-color="#808080" stop-opacity="0.25"/>
<stop offset="0.54" stop-color="#808080" stop-opacity="0.12"/>
<stop offset="1" stop-color="#808080" stop-opacity="0.1"/>
</linearGradient>
<linearGradient id="paint2_linear" x1="6430.35" y1="5198.96" x2="6430.35" y2="3794.21" gradientUnits="userSpaceOnUse">
<stop stop-color="#808080" stop-opacity="0.25"/>
<stop offset="0.54" stop-color="#808080" stop-opacity="0.12"/>
<stop offset="1" stop-color="#808080" stop-opacity="0.1"/>
</linearGradient>
<linearGradient id="paint3_linear" x1="6960.4" y1="13997.5" x2="6960.4" y2="10380.2" gradientUnits="userSpaceOnUse">
<stop stop-color="#808080" stop-opacity="0.25"/>
<stop offset="0.54" stop-color="#808080" stop-opacity="0.12"/>
<stop offset="1" stop-color="#808080" stop-opacity="0.1"/>
</linearGradient>
<linearGradient id="paint4_linear" x1="6430.35" y1="8119.09" x2="6430.35" y2="6714.33" gradientUnits="userSpaceOnUse">
<stop stop-color="#808080" stop-opacity="0.25"/>
<stop offset="0.54" stop-color="#808080" stop-opacity="0.12"/>
<stop offset="1" stop-color="#808080" stop-opacity="0.1"/>
</linearGradient>
<linearGradient id="paint5_linear" x1="51036.7" y1="58317" x2="57943.9" y2="21231.1" gradientUnits="userSpaceOnUse">
<stop stop-color="#808080" stop-opacity="0.25"/>
<stop offset="0.54" stop-color="#808080" stop-opacity="0.12"/>
<stop offset="1" stop-color="#808080" stop-opacity="0.1"/>
</linearGradient>
<linearGradient id="paint6_linear" x1="11889.8" y1="24615.4" x2="13013.3" y2="18582.9" gradientUnits="userSpaceOnUse">
<stop stop-color="#808080" stop-opacity="0.25"/>
<stop offset="0.54" stop-color="#808080" stop-opacity="0.12"/>
<stop offset="1" stop-color="#808080" stop-opacity="0.1"/>
</linearGradient>
<linearGradient id="paint7_linear" x1="547.862" y1="205.468" x2="547.862" y2="149.085" gradientUnits="userSpaceOnUse">
<stop stop-color="#B3B3B3" stop-opacity="0.25"/>
<stop offset="0.54" stop-color="#B3B3B3" stop-opacity="0.1"/>
<stop offset="1" stop-color="#B3B3B3" stop-opacity="0.05"/>
</linearGradient>
<linearGradient id="paint8_linear" x1="529.27" y1="169.192" x2="529.27" y2="166.479" gradientUnits="userSpaceOnUse">
<stop stop-opacity="0.12"/>
<stop offset="0.55" stop-opacity="0.09"/>
<stop offset="1" stop-opacity="0.02"/>
</linearGradient>
<linearGradient id="paint9_linear" x1="19883.5" y1="4180.16" x2="19883.5" y2="3685.75" gradientUnits="userSpaceOnUse">
<stop stop-opacity="0.12"/>
<stop offset="0.55" stop-opacity="0.09"/>
<stop offset="1" stop-opacity="0.02"/>
</linearGradient>
<clipPath id="clip0">
<rect x="454" y="107" width="125.13" height="108.484" fill="white"/>
</clipPath>
</defs>
</svg>
